<svg xmlns="http://www.w3.org/2000/svg" viewBox="0 0 531.82 387.66"><defs><style>.cls-1{fill:#231f20;}.cls-2{fill:#1a1a1a;}.cls-3{fill:none;}</style></defs><g id="Camada_2" data-name="Camada 2"><g id="graphics"><path class="cls-1" d="M344.23,158.76c4.42-3.08,5.36-7.5,3.35-12.09-2.87-6.57-11.13-12.09-20.62-10.9-12.34,1.54-17.6,10-19.84,16.43-4.66,13.38,4.85,31,21.43,24.15C336.12,173.21,333.14,166.47,344.23,158.76Z"/><path class="cls-1" d="M359.22,168.9c-3.41,4.71,7,13.69,10.46,9.28,4.29-5.4,5.9-13.42-.93-13.39C368.75,164.79,362,165,359.22,168.9Z"/><path class="cls-1" d="M378.34,161.37c-4.26-6.67-9.58-7.72-11.25-8.52a59.73,59.73,0,0,0-29-49.56c1.74-8.32-3.49-19.87-17.12-18.84-8.35.63-13.1,5.22-16.11,10.17q-2,.07-4,.27C297.75,87,289.56,84.12,281.12,90a80.51,80.51,0,0,0-119,5.94c-3.66-3.35-9.28-6-16.33-1.35-11.95,7.83-7.86,25,1.82,28.22a78.39,78.39,0,0,0-3.48,22.4c-2.5,4.64-4.33,11-4.71,19.68-.88,19.93,5.6,57.36,42.91,58.74,8.14.3,15.3-.82,21.22-3.29l63.47,0a57.8,57.8,0,0,0,19.54,3.19c23.18,0,39.3,1.74,44.06-10.78,8-1.36,19.28-4.44,29.66-11.39,14.78-.55,25.27-1.51,30.22-8.62C396.61,184,393,167,378.34,161.37ZM202.46,215.23c-10.46,5.3-19.07,5.25-22.68.29-4.91-6.73.82-19.41,13.37-26.41,10.28-5.73,17.33-4.44,20.67-.88C220.62,195.49,215.21,208.77,202.46,215.23Zm173.82-39.45c-2.25,9-9.87,15.25-14.13,18.27-10.48,7.44-21.77,11.92-30.4,13.62.75-9.86-5.54-21.91-19.78-24.45-12.5-2.22-17.85-.52-31.15-2.6-10-1.56-24.17-12.67-27.12-30.82-2-12.4-1.34-20.18-8.06-21.5-10.2-2-16.36,17.8-15.33,32.42,1.63,23.45,10.14,44.05,26.93,54.85H211.57c13.87-11.28,13.83-30.39,6.16-40.34-6.75-8.74-17-7.82-24.44-5.55-2.37-7.74-4.43-15.18-5.27-18.68-4.32-18.08-24.8-25.62-38.7-12.58A75.55,75.55,0,0,1,277.61,93.27c-4.45,5.51-4.39,12.74-4.37,17.4.05,14,12.32,15,16.11,8.68,4.49-7.46,2.12-5.15,9.85-12.47a9.43,9.43,0,0,0,2.63-7.27,55.64,55.64,0,0,1,55.91,32.89c1.72,5.82-2.6,9.15-2.13,15.76.33,4.75,3.76,6.54,8.77,8.57a18.77,18.77,0,0,0,2.86,1.24C374,160.41,378,169,376.28,175.78Z"/><path class="cls-2" d="M151.5,231.82v50.36h-15V231.82Zm28.73,0L167,254.66l13.21,27.52H163.34l-11.4-27.82,12.91-22.54Z"/><path class="cls-2" d="M220.37,266H199.45a10.14,10.14,0,0,1-.48-2.91,10.31,10.31,0,0,1,.67-3.62h7c-.5-2.73-2-4.09-4.61-4.09a5,5,0,0,0-4.21,2.19,9.23,9.23,0,0,0-1.62,5.63,9.79,9.79,0,0,0,1.57,5.79,4.82,4.82,0,0,0,4.11,2.21,5.5,5.5,0,0,0,4-2.06l7.86,9.44a19.27,19.27,0,0,1-12.21,4.32,18.84,18.84,0,0,1-13.76-5.5,19.39,19.39,0,0,1,.06-27.26,18.88,18.88,0,0,1,13.81-5.57,18.58,18.58,0,0,1,18.89,18.85Q220.52,264.25,220.37,266Z"/><path class="cls-2" d="M262.24,266H241.32a9.62,9.62,0,0,1,.19-6.53h7c-.5-2.73-2-4.09-4.62-4.09a5,5,0,0,0-4.2,2.19,9.23,9.23,0,0,0-1.62,5.63,9.86,9.86,0,0,0,1.56,5.79,4.85,4.85,0,0,0,4.12,2.21,5.52,5.52,0,0,0,4-2.06l7.86,9.44a19.31,19.31,0,0,1-12.21,4.32,18.84,18.84,0,0,1-13.76-5.5,19.4,19.4,0,0,1,.05-27.26,18.9,18.9,0,0,1,13.82-5.57,18.6,18.6,0,0,1,18.89,18.85Q262.39,264.25,262.24,266Z"/><path class="cls-2" d="M293.58,295.35l-12.18,6.48L267,274.73q-4-7.46-2.55-14.23a18.11,18.11,0,0,1,3.43-7.34,19.27,19.27,0,0,1,6.27-5.38A19.06,19.06,0,0,1,289,246.16a18.27,18.27,0,0,1,11.36,9.33,18.58,18.58,0,0,1,1.39,14.56,18.07,18.07,0,0,1-9.06,11.25c-.74.39-1.87.89-3.38,1.5l-7.14-13.42a5.33,5.33,0,0,0,3.64-.39,4.94,4.94,0,0,0,2.5-3.12,5.26,5.26,0,0,0-.42-4,5,5,0,0,0-3.14-2.53,5.3,5.3,0,0,0-4.07.43q-4.7,2.5-1.25,9Z"/><path class="cls-2" d="M325.47,245.4v36.78h-13.8V245.4ZM318.61,229a6.76,6.76,0,0,1,4.85,2,6.55,6.55,0,0,1,.11,9.39,7.62,7.62,0,0,1-9.93,0,6.53,6.53,0,0,1,.12-9.39A6.73,6.73,0,0,1,318.61,229Z"/><path class="cls-2" d="M345.87,231.82v14.1h6.19v14.57h-6.19q0,4.38,1.38,6.05c.92,1.1,2.61,1.66,5.07,1.66v14.49c-.71,0-1.24,0-1.58,0a18.66,18.66,0,0,1-8.84-2.18,17.78,17.78,0,0,1-6.66-5.9q-3.17-4.75-3.17-12.61V231.82Z"/><path class="cls-2" d="M376.3,244.63a18.24,18.24,0,0,1,13.41,5.62,19.07,19.07,0,0,1-.08,27.06,19.45,19.45,0,0,1-27.35,0,18.38,18.38,0,0,1-5.68-13.56,18.19,18.19,0,0,1,5.68-13.59A19.33,19.33,0,0,1,376.3,244.63Zm-.37,13.61a5,5,0,0,0-3.76,1.6,5.71,5.71,0,0,0,0,7.84,5.17,5.17,0,0,0,7.52,0,5.4,5.4,0,0,0,1.57-3.91,5.46,5.46,0,0,0-1.55-3.93A5.07,5.07,0,0,0,375.93,258.24Z"/><rect class="cls-3" width="531.82" height="387.66"/></g></g></svg>